<svg xmlns="http://www.w3.org/2000/svg" viewBox="0 0 400 300" width="406" height="306" class="illustration styles_illustrationTablet__1DWOa"><g id="_105_fast_working" data-name="#105_fast_working"><path d="M152.12,74.84h75.77a36.23,36.23,0,0,1,36.05,39.76l-7.12,72.74H123.19l-7.13-72.74A36.24,36.24,0,0,1,152.12,74.84Z" fill="#fff"></path><path d="M256.82,187.84H123.19a.5.5,0,0,1-.5-.45l-7.13-72.74a36.73,36.73,0,0,1,36.56-40.31h75.77a36.71,36.71,0,0,1,36.55,40.31l-7.12,72.74A.51.51,0,0,1,256.82,187.84Zm-133.18-1H256.37l7.08-72.29a35.73,35.73,0,0,0-35.56-39.21H152.12a35.72,35.72,0,0,0-35.56,39.21Z" fill="#d1d3d4"></path><path d="M285.83,129.93c-5.82,3.2-38,6.22-42.9,8.49a20.24,20.24,0,0,0-2.52,1.44c-7.82,5.16-13,17.64.63,18.77,4.17.35,40.85-13.21,55.44-19.33,3.22-1.34,13.89-6.86,13.07-9S305.32,122.6,304,123s-11.27,5.11-11.27,5.11,2.77-8.3,0-8S285.83,129.93,285.83,129.93Z" fill="#fff"></path><path d="M241.19,159.15H241c-6.17-.52-8.13-3.26-8.7-5.47-1.24-4.87,3-11.07,7.82-14.25a20.72,20.72,0,0,1,2.59-1.47c2.26-1.06,9.72-2.19,18.36-3.51,9.87-1.5,21-3.2,24.36-4.89.68-1.58,4.34-9.74,7.22-10a1.41,1.41,0,0,1,1.31.52c1.06,1.33.19,5-.39,7,2.61-1.24,9.17-4.33,10.28-4.63,2-.54,5.57,6,6.18,7.64,1.2,3.15-13.2,9.62-13.35,9.68C283.39,145.35,246.37,159.15,241.19,159.15Zm51.65-38.59h-.09c-1.81.18-4.91,6-6.44,9.57a.51.51,0,0,1-.23.25c-3.29,1.81-14.25,3.48-24.86,5.09-8.2,1.25-16,2.43-18.07,3.42a19.26,19.26,0,0,0-2.46,1.4c-5.07,3.35-8.39,9.24-7.39,13.13.69,2.71,3.38,4.33,7.79,4.7h.16c4.67,0,40.36-13.14,55-19.29,5.06-2.12,13.28-7.06,12.78-8.37-1-2.6-4.09-7-4.92-7h0c-1.06.28-8.42,3.76-11.17,5.07a.52.52,0,0,1-.57-.08.51.51,0,0,1-.14-.55c.81-2.45,1.64-6.3.92-7.2A.35.35,0,0,0,292.84,120.56Zm-7,9.37h0Z" fill="#231f20"></path><path d="M212.83,79.84a103.54,103.54,0,0,0,20.9-25.39l8.35,5.17S234.42,80,212.83,79.84Z" fill="#fff"></path><path d="M213.1,80.35h-.28a.51.51,0,0,1-.32-.91,103.68,103.68,0,0,0,20.78-25.25.49.49,0,0,1,.32-.24.51.51,0,0,1,.4.06l8.35,5.17a.53.53,0,0,1,.22.62C242.49,60,234.59,80.35,213.1,80.35Zm20.81-25.18A106.26,106.26,0,0,1,214.22,79.3c18.34-.63,26-16.74,27.22-19.48Z" fill="#231f20"></path><path d="M212.83,79.84a38.34,38.34,0,0,0,26.42-7.08L241,84.33s-12.12,6.33-30.14-.69Z" fill="#fff"></path><path d="M227.53,87.44a46.4,46.4,0,0,1-16.88-3.32.55.55,0,0,1-.3-.3.51.51,0,0,1,0-.42l2-3.8a.5.5,0,0,1,.54-.27,38.18,38.18,0,0,0,26-7,.52.52,0,0,1,.51-.06.5.5,0,0,1,.3.4l1.73,11.57a.54.54,0,0,1-.27.54C241.14,84.83,236,87.44,227.53,87.44Zm-16-4.08c15.7,5.92,26.83,1.57,28.85.67l-1.54-10.38a39.56,39.56,0,0,1-25.75,6.75Z" fill="#231f20"></path><path d="M249.68,136.29s-3-7.38-17.29-24c-6.86-8-25.27-11-30.21-11.26,1.08.11,4.17-1.59-16.87,0-10.82.82-17.74,1.36-24.11,8.14-12,12.79-38,40-38,40L150.65,157s4.45-3.12,6.08-5.28L152.79,181l74.13,4.32-.62-33.57,7.6,6.2Z" fill="#abd94a"></path><path d="M200.91,101s.46,0,1.27,0C201.74,100.94,200.91,101,200.91,101Z" fill="#abd94a"></path><polygon points="181.55 104.16 182.22 179.24 202.99 179.24 202.99 100.05 181.55 104.16" fill="#fff"></polygon><path d="M203,179.7H182.22a.46.46,0,0,1-.46-.45l-.67-75.09a.46.46,0,0,1,.37-.45L202.9,99.6a.45.45,0,0,1,.55.44v79.2A.46.46,0,0,1,203,179.7Zm-20.32-.91h19.86V100.6L182,104.53Z" fill="#231f20"></path><path d="M177.5,152.17a.45.45,0,0,1-.41-.26l-9-18.87a.47.47,0,0,1,0-.46l5.84-8.59-5.73-4.22a.46.46,0,0,1-.11-.62l9-13.3a.45.45,0,0,1,.63-.12.46.46,0,0,1,.12.64l-8.79,12.93,5.72,4.21a.46.46,0,0,1,.11.63L169,132.88l8.93,18.64a.46.46,0,0,1-.22.61A.45.45,0,0,1,177.5,152.17Z" fill="#231f20"></path><path d="M206.32,152.17a.45.45,0,0,1-.2,0,.46.46,0,0,1-.22-.61l8.93-18.64-5.93-8.74a.46.46,0,0,1,.11-.63l5.72-4.21-8.79-12.93a.46.46,0,0,1,.12-.64.45.45,0,0,1,.63.12l9.05,13.3a.46.46,0,0,1-.11.62L209.9,124l5.84,8.59a.47.47,0,0,1,0,.46l-9,18.87A.45.45,0,0,1,206.32,152.17Z" fill="#231f20"></path><path d="M211,95.91c-.13,0,2.27-12.83,2.48-13.91,1.41-7.25,2.5-13.83,1.84-19.69-1.73.84-2.15,3.41-3.59,4.67a150.28,150.28,0,0,1-.7-16.43c-9.4,3.33-19.3,7-25.49,14.83l-.74-11.69c-4.34,7-8.75,14.16-11.08,22.11S173,91.16,174.93,99Z" fill="#fff"></path><path d="M174.93,99.48a.52.52,0,0,1-.5-.4c-2-8.18-3.45-15.59-1.16-23.42,2.39-8.19,7-15.65,11.14-22.24a.52.52,0,0,1,.56-.23.51.51,0,0,1,.39.47L186,64.05c6.53-7.48,16.67-11.08,24.88-14a.52.52,0,0,1,.69.49,150.54,150.54,0,0,0,.59,15.16c.22-.35.43-.73.64-1.12a5.92,5.92,0,0,1,2.32-2.75.54.54,0,0,1,.48,0,.55.55,0,0,1,.26.4c.69,6-.48,12.84-1.85,19.85-.26,1.36-2.39,12.83-2.47,13.76a.41.41,0,0,1,0,.22.49.49,0,0,1-.44.34L175,99.48Zm9.5-44.15c-3.84,6.19-8,13.13-10.17,20.62s-.83,14.59,1.07,22.46l35.29-3c.12-1.27.65-4.6,2.39-13.53,1.28-6.58,2.39-13,1.92-18.65a8.19,8.19,0,0,0-1.21,1.83,8,8,0,0,1-1.61,2.29.49.49,0,0,1-.53.09.51.51,0,0,1-.33-.43,156.32,156.32,0,0,1-.71-15.75c-8.32,3-18.44,6.7-24.56,14.42a.53.53,0,0,1-.56.17.54.54,0,0,1-.36-.46Z" fill="#231f20"></path><path d="M205.69,95.32c1-6.14,11.18-7.65,10.68-.41a10.71,10.71,0,0,1-2.72,6.8,6.31,6.31,0,0,1-6.84,1.6" fill="#fff"></path><path d="M208.94,104.26a5.64,5.64,0,0,1-2.34-.48.51.51,0,1,1,.42-.94,5.76,5.76,0,0,0,6.26-1.49,10.2,10.2,0,0,0,2.57-6.48c.17-2.45-1-4-3.14-4.25a6.06,6.06,0,0,0-6.51,4.79.51.51,0,0,1-.59.42.52.52,0,0,1-.43-.59,7.05,7.05,0,0,1,7.65-5.65c2.12.25,4.3,1.78,4,5.35a11.27,11.27,0,0,1-2.86,7.13A7.25,7.25,0,0,1,208.94,104.26Z" fill="#231f20"></path><path d="M180.28,95.32c-1-6.14-11.18-7.65-10.68-.41a10.76,10.76,0,0,0,2.72,6.8,6.31,6.31,0,0,0,6.84,1.6" fill="#fff"></path><path d="M177,104.26a7.25,7.25,0,0,1-5.09-2.19A11.26,11.26,0,0,1,169.09,95c-.25-3.58,1.93-5.11,4-5.36a7.06,7.06,0,0,1,7.65,5.65.5.5,0,0,1-.43.59.51.51,0,0,1-.59-.42,6.07,6.07,0,0,0-6.51-4.79c-2.17.25-3.31,1.8-3.14,4.25a10.2,10.2,0,0,0,2.57,6.48,5.77,5.77,0,0,0,6.26,1.49.51.51,0,0,1,.42.94A5.62,5.62,0,0,1,177,104.26Z" fill="#231f20"></path><polygon points="181.75 123.62 191.98 132.03 202.96 125.92 203.69 100.47 181.75 99.78 181.75 123.62" fill="#fff"></polygon><path d="M192,132.55a.49.49,0,0,1-.32-.12L181.42,124a.49.49,0,0,1-.18-.4V99.78a.53.53,0,0,1,.15-.37.54.54,0,0,1,.38-.14l21.94.68a.52.52,0,0,1,.5.53l-.74,25.45a.5.5,0,0,1-.26.44l-11,6.11A.43.43,0,0,1,192,132.55Zm-9.71-9.17,9.77,8,10.41-5.8.71-24.65-20.89-.64Z" fill="#231f20"></path><path d="M182.44,110c.2,1.16,6.44,8.9,20.84,9.78V110c-3.44.49-8,2.17-11.71,1.83a30.13,30.13,0,0,1-9.13-1.77C182,109.83,182.9,110.3,182.44,110Z" fill="#231f20"></path><path d="M203.28,120.32h0c-13.63-.83-20.35-7.9-21.21-9.92a.47.47,0,0,1-.2-.63c.1-.2.32-.4.8-.18h0a30.26,30.26,0,0,0,9,1.73,25.76,25.76,0,0,0,7.76-1c1.36-.32,2.65-.62,3.83-.79a.49.49,0,0,1,.4.12.52.52,0,0,1,.17.37v9.84a.48.48,0,0,1-.16.36A.48.48,0,0,1,203.28,120.32ZM183.61,111c1.89,2.3,7.79,7.44,19.17,8.28v-8.72c-1,.17-2.05.42-3.18.68a26.77,26.77,0,0,1-8.07,1.06A36.76,36.76,0,0,1,183.61,111Z" fill="#231f20"></path><path d="M191.7,114.09h1.64A14.08,14.08,0,0,0,207.42,100V83.44c0-3.46-4.84-5.58-7.66-6a29.8,29.8,0,0,0-9.17.44c-7.44,1.15-13.05,3.87-13,12.24,0,3.31,0,6.63,0,9.94A14.08,14.08,0,0,0,191.7,114.09Z" fill="#fff"></path><path d="M193.34,114.61H191.7A14.62,14.62,0,0,1,177.1,100c0-1.1,0-2.21,0-3.31q0-3.32,0-6.63c-.08-9.45,7.12-11.78,13.41-12.75a29.8,29.8,0,0,1,9.34-.44c3.35.56,8.08,3,8.08,6.56V100A14.61,14.61,0,0,1,193.34,114.61ZM197,77.7a41.65,41.65,0,0,0-6.31.64c-8.85,1.37-12.6,4.87-12.54,11.72q0,3.33,0,6.64c0,1.11,0,2.21,0,3.31a13.59,13.59,0,0,0,13.57,13.57h1.64A13.58,13.58,0,0,0,206.9,100V83.44c0-3-4.31-5.06-7.22-5.54A17.53,17.53,0,0,0,197,77.7Z" fill="#231f20"></path><ellipse cx="197.2" cy="94.14" rx="0.85" ry="1.95" transform="translate(-5.78 13.21) rotate(-3.78)" fill="#231f20"></ellipse><ellipse cx="184.97" cy="94.09" rx="0.85" ry="1.95" transform="matrix(1, -0.07, 0.07, 1, -5.8, 12.4)" fill="#231f20"></ellipse><path d="M189.06,109.2c-.48,0-.76,0-.81,0a.52.52,0,0,1,.1-1,17.85,17.85,0,0,0,12.22-4.51.53.53,0,0,1,.73.06.52.52,0,0,1-.06.73A19.16,19.16,0,0,1,189.06,109.2Z" fill="#231f20"></path><path d="M202.45,106.11a.44.44,0,0,1-.22,0c-2.56-1.18-2.28-4.07-1.77-5.43a.5.5,0,0,1,.66-.3.52.52,0,0,1,.31.66c-.05.12-1.1,3.06,1.24,4.14a.52.52,0,0,1,.25.68A.52.52,0,0,1,202.45,106.11Z" fill="#231f20"></path><path d="M190.37,105.39a1.1,1.1,0,0,1-.87-.43c-1.32-1.63.07-8.79.37-10.21a.52.52,0,0,1,1,.21c-.69,3.33-1.32,8.43-.58,9.34,1.85,0,3.25-2.19,3.26-2.21a.51.51,0,0,1,.71-.16.52.52,0,0,1,.17.71C194.37,102.75,192.71,105.39,190.37,105.39Z" fill="#231f20"></path><path d="M194,93.9a.53.53,0,0,1-.5-.38.52.52,0,0,1,.36-.63c.76-.22,3.37-2.36,4.77-3.51.67-.55,1.2-1,1.46-1.17a.52.52,0,0,1,.6.85c-.23.16-.78.6-1.41,1.12-2.28,1.87-4.24,3.44-5.14,3.7Z" fill="#231f20"></path><path d="M187.7,93.9a.54.54,0,0,1-.28-.08c-2.25-1.47-4.79-3-5.24-3.24a.51.51,0,0,1,0-1c.25-.06.47-.1,5.83,3.38a.52.52,0,0,1,.15.71A.51.51,0,0,1,187.7,93.9Z" fill="#231f20"></path><polygon points="335.54 225.01 52.77 225.01 84.22 166.16 304.09 166.16 335.54 225.01" fill="#fff"></polygon><path d="M335.54,225.51H52.77a.49.49,0,0,1-.42-.24.48.48,0,0,1,0-.49l31.45-58.85a.5.5,0,0,1,.44-.27H304.09a.5.5,0,0,1,.44.27L336,224.78a.5.5,0,0,1-.44.73Zm-281.93-1H334.7l-30.91-57.85H84.52Z" fill="#231f20"></path><path d="M268,174.39,227,164.12s-20.55,32.42-30.82,39l49.08,14.15S265.53,184.89,268,174.39Z" fill="#fff"></path><path d="M245.21,217.81l-.14,0L196,203.64a.51.51,0,0,1-.13-.91c10.06-6.48,30.46-38.55,30.67-38.88a.48.48,0,0,1,.54-.21l41.09,10.27a.49.49,0,0,1,.36.6c-2.5,10.46-22.06,41.74-22.89,43.06A.49.49,0,0,1,245.21,217.81ZM197.28,203,245,216.72c2.08-3.34,19.66-31.77,22.44-42l-40.25-10.07C225,168.1,207.31,195.57,197.28,203Z" fill="#231f20"></path><path d="M249.68,208.61l-.17,0C236.57,204,216.87,197,215.64,196.86a.5.5,0,0,1,.14-1c1.72.23,30.76,10.59,34.07,11.77a.5.5,0,0,1-.17,1Z" fill="#d1d3d4"></path><path d="M253.68,202a.51.51,0,0,1-.17,0c-12.94-4.62-32.64-11.56-33.87-11.72a.51.51,0,0,1-.43-.56.51.51,0,0,1,.57-.43c1.72.23,30.76,10.59,34.07,11.77a.5.5,0,0,1-.17,1Z" fill="#d1d3d4"></path><path d="M259.05,193.71a.51.51,0,0,1-.17,0C245.94,189.06,226.24,182.12,225,182a.5.5,0,0,1-.43-.56.51.51,0,0,1,.56-.43c1.73.23,30.77,10.59,34.08,11.77a.5.5,0,0,1-.17,1Z" fill="#d1d3d4"></path><path d="M262.68,184.84l-.17,0c-12.94-4.62-32.64-11.55-33.86-11.72a.49.49,0,0,1-.43-.56.5.5,0,0,1,.56-.43c1.72.23,30.76,10.59,34.07,11.77a.49.49,0,0,1,.3.64A.48.48,0,0,1,262.68,184.84Z" fill="#d1d3d4"></path><path d="M237.62,185.32s5.48,28.76,9.59,35.27c0,0,39.89-1.89,50.16-9.42,0,0-16.61-22.43-19.35-32.7Z" fill="#fff"></path><path d="M247.21,221.09a.52.52,0,0,1-.43-.24c-4.11-6.51-9.43-34.26-9.65-35.44a.47.47,0,0,1,.08-.38.48.48,0,0,1,.33-.2l40.4-6.85a.5.5,0,0,1,.57.36c2.68,10.06,19.1,32.31,19.26,32.53a.49.49,0,0,1,.09.37.51.51,0,0,1-.19.33c-10.28,7.54-48.8,9.44-50.44,9.52Zm-9-35.36c.74,3.8,5.57,28,9.27,34.34,3.62-.19,39-2.23,49.18-9-2.3-3.14-16.13-22.26-19-32Z" fill="#231f20"></path><polygon points="164.47 172.06 151.57 208.34 215.71 210.76 203.69 172.06 164.47 172.06" fill="#fff"></polygon><path d="M215.71,211.26h0l-64.14-2.42a.51.51,0,0,1-.39-.22.48.48,0,0,1-.06-.45L164,171.89a.5.5,0,0,1,.47-.33h39.22a.5.5,0,0,1,.48.35l12,38.7a.48.48,0,0,1-.08.45A.49.49,0,0,1,215.71,211.26Zm-63.44-3.39L215,210.23l-11.7-37.67h-38.5Z" fill="#231f20"></path><rect x="52.77" y="225.01" width="282.76" height="13.89" fill="#fff"></rect><path d="M335.54,239.4H52.77a.5.5,0,0,1-.5-.5V225a.51.51,0,0,1,.5-.5H335.54a.51.51,0,0,1,.5.5V238.9A.5.5,0,0,1,335.54,239.4Zm-282.27-1H335V225.51H53.27Z" fill="#231f20"></path><polygon points="180.94 160.19 191.05 178.68 191.16 179.57 191.7 183.94 188.31 181.13 187.62 180.56 177.51 162.06 180.94 160.19" fill="#231f20"></polygon><path d="M191.7,184.44a.47.47,0,0,1-.32-.12l-4.08-3.38a.53.53,0,0,1-.12-.14l-10.11-18.5a.49.49,0,0,1,.2-.67l3.43-1.88a.5.5,0,0,1,.38,0,.49.49,0,0,1,.29.24l10.12,18.49a.41.41,0,0,1,0,.18l.65,5.26a.47.47,0,0,1-.25.49A.44.44,0,0,1,191.7,184.44ZM188,180.23l3,2.52-.48-3.92-9.83-18-2.56,1.4Z" fill="#231f20"></path><path d="M177.93,155.89h2.87a1,1,0,0,1,1,1v10a0,0,0,0,1,0,0H177a0,0,0,0,1,0,0v-10a1,1,0,0,1,1-1Z" transform="translate(-55.44 105.84) rotate(-28.67)" fill="#231f20"></path><path d="M179.89,167.85l-.14,0a.48.48,0,0,1-.3-.24l-4.81-8.79a1.48,1.48,0,0,1-.12-1.11,1.45,1.45,0,0,1,.71-.88l2.51-1.38a1.49,1.49,0,0,1,2,.59l4.8,8.79a.49.49,0,0,1-.19.67l-4.23,2.31A.46.46,0,0,1,179.89,167.85Zm-1.44-11.6a.46.46,0,0,0-.23.06l-2.51,1.37h0a.42.42,0,0,0-.23.29.45.45,0,0,0,0,.36l4.56,8.35,3.35-1.83-4.56-8.35A.48.48,0,0,0,178.45,156.25Zm-3,1h0Z" fill="#231f20"></path><path d="M177.6,167.82a.5.5,0,0,1-.45-.26c-.11-.19-2.53-4.57-2.82-5.22s.06-3,.24-3.87a.52.52,0,0,1,.61-.41.51.51,0,0,1,.41.6,11.66,11.66,0,0,0-.32,3.26c.23.51,2.08,3.88,2.78,5.14a.51.51,0,0,1-.2.7A.57.57,0,0,1,177.6,167.82Z" fill="#231f20"></path><path d="M142,153.27c-8.31-3.89-21.22-8.51-24.58,3.73a12.31,12.31,0,0,0,7.78,15c14.86,5.53,56,11.22,56,11.22s4-.69,5.43-3.28,5,.17,7-1.56.59-5.05-1.31-7.69-8.09-2.93-9.66-2.63-5.53,2.63-5.54,2.64c-3.73,2.18-12.69-5.51-15.75-7.27q-8.77-5-17.88-9.45Z" fill="#fff"></path><path d="M181.27,183.7h-.06c-.41-.06-41.39-5.76-56.13-11.24A12.77,12.77,0,0,1,117,156.88c1-3.58,2.86-6,5.56-7.27,5.74-2.65,14,.58,19.66,3.24h0c.53.24,1.05.49,1.54.73,6,2.93,12.07,6.12,17.91,9.47.7.4,1.69,1.1,2.84,1.91,3.67,2.58,9.8,6.9,12.45,5.35,0,0,4-2.36,5.68-2.69,1.46-.28,8-.08,10.12,2.82,2.64,3.65,3.09,6.68,1.24,8.3-1,.92-2.48.75-3.74.6-1.59-.19-2.59-.25-3.17.82-1.47,2.76-5.58,3.49-5.75,3.52Zm-53.73-34.17a10.88,10.88,0,0,0-4.59.91c-2.45,1.13-4.15,3.38-5,6.68a11.86,11.86,0,0,0,7.5,14.47c14.34,5.34,53.88,10.91,55.86,11.19.51-.11,3.87-.85,5-3,.89-1.68,2.58-1.48,4.08-1.3,1.17.14,2.28.27,3-.38,2.12-1.86-.52-5.89-1.38-7.08-1.7-2.36-7.63-2.75-9.2-2.45a28.13,28.13,0,0,0-5.4,2.58c-3.15,1.84-9.1-2.34-13.44-5.39-1.13-.8-2.1-1.49-2.77-1.87-5.82-3.34-11.82-6.52-17.85-9.44l-1.53-.73h0C137.74,151.76,132.28,149.53,127.54,149.53Z" fill="#231f20"></path><path d="M172.07,84.93s25.8,10.87,41.92,1.2l1.72-10.9s-25,5.56-41.14-3.77a30.38,30.38,0,0,0-2.42,6.91A21.69,21.69,0,0,0,172.07,84.93Z" fill="#fff"></path><path d="M197.43,90.56c-13,0-25.36-5.13-25.54-5.21a.46.46,0,0,1-.28-.34,22.1,22.1,0,0,1,.09-6.72,30.72,30.72,0,0,1,2.46-7,.47.47,0,0,1,.28-.24.46.46,0,0,1,.36,0c15.78,9.12,40.56,3.77,40.81,3.72a.42.42,0,0,1,.41.11.43.43,0,0,1,.14.4l-1.72,10.9a.45.45,0,0,1-.22.32C209.22,89.52,203.27,90.56,197.43,90.56Zm-25-6c2.63,1,26.16,10,41.09,1.23l1.59-10c-4,.78-25.76,4.44-40.39-3.71a29,29,0,0,0-2.17,6.35A21.77,21.77,0,0,0,172.48,84.61Z" fill="#231f20"></path><path d="M188.3,128.91l2.33,3.87s-1.58,13.61,4,21.44,37.23-11.43,37.23-11.43l1-10.76H221.58s-15.26,19.68-22.4,15c-6.28-4.13-5.7-15-5.7-15l4.1-3.12-5.06-4.51Z" fill="#231f20"></path><path d="M199.36,156.55c-2.31,0-4.14-.59-5.16-2-5.33-7.51-4.25-19.94-4.08-21.62l-2.24-3.72a.5.5,0,0,1,.06-.6l4.21-4.51a.5.5,0,0,1,.7,0l5.06,4.51a.52.52,0,0,1,.17.39.51.51,0,0,1-.2.38l-3.91,3c0,1.56,0,10.73,5.49,14.33,6.66,4.38,21.58-14.69,21.72-14.88a.49.49,0,0,1,.4-.2h11.28a.51.51,0,0,1,.5.55l-1,10.76a.47.47,0,0,1-.24.37C231,143.87,210,156.55,199.36,156.55ZM188.92,129l2.14,3.54a.48.48,0,0,1,.07.31c0,.14-1.5,13.52,3.88,21.1,4.31,6.07,27.48-6.08,36.34-11.44l1-10H221.82c-1.71,2.17-15.78,19.6-22.91,14.91-6.45-4.24-5.95-15-5.92-15.44a.44.44,0,0,1,.19-.36l3.62-2.76-4.25-3.79Z" fill="#231f20"></path><path d="M195.94,123c-9,0-13.73-3.72-14-3.92a.51.51,0,0,1,.64-.8c.08.05,7.17,5.57,20.24,3a.51.51,0,0,1,.61.4.52.52,0,0,1-.4.61A36.36,36.36,0,0,1,195.94,123Z" fill="#231f20"></path><path d="M156.73,152.23a.5.5,0,0,1-.48-.33l-5.16-13.2a.52.52,0,1,1,1-.38l5.16,13.21a.52.52,0,0,1-.3.67A.57.57,0,0,1,156.73,152.23Z" fill="#231f20"></path><path d="M292.64,174.33l-37.21,3.88s4.57,31.73,7.31,38.35c0,0,33.78,2.51,51.13-7.53C313.87,209,292.87,180.27,292.64,174.33Z" fill="#fff"></path><path d="M271.91,217.33c-5.46,0-9.1-.26-9.21-.27a.48.48,0,0,1-.42-.31c-2.74-6.6-7.16-37.17-7.34-38.47a.49.49,0,0,1,.1-.37.47.47,0,0,1,.34-.19l37.21-3.89a.53.53,0,0,1,.38.12.53.53,0,0,1,.17.36c.18,4.58,13.9,24.52,21.13,34.42a.48.48,0,0,1,.09.4.51.51,0,0,1-.24.33C302.45,216.22,283.26,217.33,271.91,217.33Zm-8.82-1.25c3.4.22,33.79,1.83,50.05-7.21-2.7-3.72-19.77-27.44-20.94-34L256,178.66C256.6,182.72,260.58,209.52,263.09,216.08Z" fill="#231f20"></path><path d="M291.39,78.06l-5.78,20.63s25.11.3,33.85-10.5l3.28-21.35S298.64,79.05,291.39,78.06Z" fill="#fff"></path><path d="M285.76,99.2h-.16a.46.46,0,0,1-.39-.2.48.48,0,0,1-.09-.43l5.79-20.64a.52.52,0,0,1,.55-.36c7,1,30.81-11,31.05-11.16a.49.49,0,0,1,.52,0,.49.49,0,0,1,.2.48L320,88.27a.45.45,0,0,1-.11.23c-3.7,4.58-10.59,7.77-20.5,9.48A86,86,0,0,1,285.76,99.2Zm6-20.6-5.49,19.59c4,0,24.94-.79,32.71-10.21l3.12-20.26C317.74,69.88,298.77,79.06,291.76,78.6Z" fill="#231f20"></path><polygon points="132.01 210.71 155.83 188.4 91.79 183.24 68.71 203.67 132.01 210.71" fill="#231f20"></polygon><path d="M132,211.2H132l-63.3-7a.5.5,0,0,1-.42-.34.49.49,0,0,1,.15-.52l23.08-20.43a.51.51,0,0,1,.37-.13l64,5.16a.53.53,0,0,1,.43.33.52.52,0,0,1-.13.53l-23.82,22.31A.55.55,0,0,1,132,211.2Zm-62.13-7.9,62,6.88,22.84-21.38L92,183.75Z" fill="#231f20"></path><polygon points="132.01 210.71 120.08 160.63 57.95 155.77 68.71 203.67 132.01 210.71" fill="#fff"></polygon><path d="M132,211.2H132l-63.3-7a.51.51,0,0,1-.43-.39l-10.76-47.9a.54.54,0,0,1,.11-.44.52.52,0,0,1,.42-.17l62.13,4.86a.5.5,0,0,1,.44.39l11.93,50.07a.5.5,0,0,1-.11.45A.51.51,0,0,1,132,211.2Zm-62.89-8,62.24,6.92-11.69-49-61.09-4.78Z" fill="#231f20"></path><path d="M96.37,190.9a9.36,9.36,0,0,1-5.68-2.22,29.46,29.46,0,0,1-3.69-5,.5.5,0,0,1,.06-.59l1.39-1.53a.51.51,0,0,1,.4-.16.52.52,0,0,1,.38.21,5.63,5.63,0,0,0,6.45,1.75h0a7.22,7.22,0,0,0,3.75-3.57,7.65,7.65,0,0,0,.19-1.13,2.64,2.64,0,0,1,.3-1.29c.14-.16.45-.54,2.62-.1a.5.5,0,0,1,.41.48l0,2.68c.17.72,1.13,5.13,0,6.66a8.51,8.51,0,0,1-5.89,3.77C96.85,190.88,96.61,190.9,96.37,190.9Zm-8.32-7.42a26.68,26.68,0,0,0,3.3,4.45A8,8,0,0,0,97,189.86a7.56,7.56,0,0,0,5.19-3.37c.69-.91.26-4.09-.16-5.89a.3.3,0,0,1,0-.1l0-2.32a6.28,6.28,0,0,0-1.27-.11c0,.14,0,.47-.08.71a5.14,5.14,0,0,1-.29,1.45A8.11,8.11,0,0,1,96,184.3h0a6.68,6.68,0,0,1-7.25-1.63Zm7.81.35h0Zm4.73-5.74Z" fill="#d1d3d4"></path><path d="M204.42,202.74h0l-45.66-1.15a.5.5,0,0,1-.48-.52.49.49,0,0,1,.5-.48h0l45.65,1.15a.49.49,0,0,1,.49.51A.51.51,0,0,1,204.42,202.74Z" fill="#d1d3d4"></path><path d="M173.68,193.71c-6.58,0-11.62,0-11.85-.06a.5.5,0,0,1,.18-1c1,.09,27.22,0,41,0h0a.5.5,0,0,1,.5.5.5.5,0,0,1-.5.5C197.26,193.68,183.68,193.71,173.68,193.71Z" fill="#d1d3d4"></path><path d="M199.24,185.12h-.05l-7.54-.68a.5.5,0,0,1-.45-.55.49.49,0,0,1,.54-.45l7.54.68a.5.5,0,0,1,0,1Z" fill="#d1d3d4"></path><path d="M288.83,147s.83-23.75,13.61-36l34.12,9.9S318,141.05,318.24,157.78Z" fill="#fff"></path><path d="M318.24,158.3a.47.47,0,0,1-.17,0l-29.42-10.78a.52.52,0,0,1-.34-.5c0-.24,1-24.1,13.77-36.35a.54.54,0,0,1,.5-.12l34.13,9.9a.53.53,0,0,1,.35.36.49.49,0,0,1-.12.49c-.18.2-18.38,20.18-18.18,36.5a.53.53,0,0,1-.22.43A.54.54,0,0,1,318.24,158.3Zm-28.88-11.65L317.73,157c.17-8.56,5-17.87,9.16-24.24a105.69,105.69,0,0,1,8.74-11.61l-33.05-9.59C291.16,122.78,289.54,143.61,289.36,146.65Z" fill="#231f20"></path><path d="M325.78,124.23l-.14,0-23.45-6.8a.51.51,0,0,1-.34-.62.49.49,0,0,1,.62-.34l23.45,6.8a.5.5,0,0,1-.14,1Z" fill="#d1d3d4"></path><path d="M322.4,131.08l-.14,0-23.45-6.8a.51.51,0,0,1-.34-.62.49.49,0,0,1,.62-.34l23.45,6.8a.5.5,0,0,1-.14,1Z" fill="#d1d3d4"></path><path d="M319.51,138.3l-.14,0-23.45-6.8a.5.5,0,0,1-.34-.62.49.49,0,0,1,.62-.34l23.45,6.8a.5.5,0,0,1,.34.62A.49.49,0,0,1,319.51,138.3Z" fill="#d1d3d4"></path><path d="M309.5,144.76a.36.36,0,0,1-.14,0l-16.67-4.84a.49.49,0,0,1-.34-.62.5.5,0,0,1,.62-.34l16.67,4.84a.5.5,0,0,1,.34.62A.49.49,0,0,1,309.5,144.76Z" fill="#d1d3d4"></path><path d="M313.85,90.13h-.1c-.14,0-.48-.11-.46-.66a.44.44,0,0,1,.13-.31c.39-1.78,1.88-11,2.85-17.26a.5.5,0,1,1,1,.16C314.58,89.18,314.4,90.13,313.85,90.13Z" fill="#d1d3d4"></path><path d="M308.85,92.68h-.1c-.15,0-.48-.1-.46-.66a.44.44,0,0,1,.13-.31c.39-1.78,1.88-11,2.85-17.26a.49.49,0,0,1,.57-.41.5.5,0,0,1,.42.57C309.58,91.73,309.4,92.68,308.85,92.68Z" fill="#d1d3d4"></path><path d="M303.47,93.75h-.1c-.14,0-.48-.1-.46-.65a.49.49,0,0,1,.13-.32c.39-1.78,1.88-11,2.85-17.26a.51.51,0,0,1,.58-.41.49.49,0,0,1,.41.57C304.2,92.8,304,93.75,303.47,93.75Z" fill="#d1d3d4"></path><path d="M298.38,96.4h-.1c-.15,0-.48-.11-.46-.66a.44.44,0,0,1,.13-.31c.38-1.79,1.88-11,2.85-17.26a.51.51,0,0,1,.57-.42.51.51,0,0,1,.42.57C299.1,95.44,298.93,96.4,298.38,96.4Z" fill="#d1d3d4"></path><path d="M293,97.11h-.1c-.15,0-.48-.11-.46-.66a.48.48,0,0,1,.13-.32c.38-1.78,1.88-11,2.85-17.25a.5.5,0,0,1,.57-.42.51.51,0,0,1,.42.57C293.75,96.16,293.58,97.11,293,97.11Z" fill="#d1d3d4"></path><path d="M271.53,61.6s-.28,5.32,4.39,12.44c0,0,9.94-15.32,16-17.67S275.93,51.77,271.53,61.6Z" fill="#fff"></path><path d="M275.92,74.54a.52.52,0,0,1-.42-.23C270.8,67.14,271,61.8,271,61.57a.61.61,0,0,1,.05-.18c3.09-6.91,14.42-8.18,19.8-7.32,1.68.26,2.54.72,2.61,1.39s-1,1.23-1.37,1.37c-5.86,2.27-15.68,17.33-15.78,17.48a.5.5,0,0,1-.42.23ZM272,61.71c0,.69.11,5.34,3.9,11.41,2-3,10.33-15.09,15.83-17.22a2.24,2.24,0,0,0,.68-.35c-.56-.42-3.37-.95-7.37-.58C281.94,55.25,274.45,56.49,272,61.71Z" fill="#231f20"></path><path d="M293.89,68.76s-7.69-12.83-22.36-7.16a109.12,109.12,0,0,1,10.68-18.44s8.09-2.82,18.91,6.24C301.12,49.4,297.61,62.93,293.89,68.76Z" fill="#fff"></path><path d="M293.89,69.26h0a.52.52,0,0,1-.42-.25c-.31-.51-7.66-12.39-21.75-7a.48.48,0,0,1-.54-.12.49.49,0,0,1-.1-.54,110.45,110.45,0,0,1,10.74-18.53.5.5,0,0,1,.24-.19c.34-.11,8.48-2.8,19.39,6.34a.51.51,0,0,1,.16.51c-.14.55-3.57,13.67-7.29,19.5A.52.52,0,0,1,293.89,69.26Zm-15.13-9.6c8.47,0,13.61,6.12,15.1,8.17,3.18-5.47,6.17-16.29,6.69-18.25-9.58-7.9-16.93-6.3-18-6a112.7,112.7,0,0,0-10,17.14A20,20,0,0,1,278.76,59.66Z" fill="#231f20"></path><path d="M292.55,61.73a.44.44,0,0,1-.16,0,.5.5,0,0,1-.31-.64l4.05-11.76a.5.5,0,0,1,.63-.31.51.51,0,0,1,.31.64L293,61.4A.5.5,0,0,1,292.55,61.73Z" fill="#d1d3d4"></path><path d="M287.82,58.76a.45.45,0,0,1-.16,0,.5.5,0,0,1-.31-.63l4-11.62a.5.5,0,1,1,.94.32l-4,11.62A.49.49,0,0,1,287.82,58.76Z" fill="#d1d3d4"></path><path d="M282,57.22a.48.48,0,0,1-.2,0,.51.51,0,0,1-.27-.65c4.61-11.05,4.94-11.09,5.28-11.14a.52.52,0,0,1,.56.43.48.48,0,0,1-.19.46c-.5.71-3.15,6.86-4.72,10.63A.49.49,0,0,1,282,57.22Z" fill="#d1d3d4"></path><path d="M98.77,118.61s-19.36-2.43-24.35-10.43C71.2,103,79.15,85.45,79.15,85.45s2.66,10.12,9.75,11.64,11.64,2.15,11.64,2.15S95.1,113.55,98.77,118.61Z" fill="#fff"></path><path d="M98.77,119.11h-.06c-.8-.1-19.66-2.55-24.72-10.67-3.32-5.34,4.37-22.47,4.7-23.2a.48.48,0,0,1,.5-.29.49.49,0,0,1,.44.37c0,.1,2.67,9.85,9.37,11.28,7,1.5,11.57,2.14,11.61,2.15A.48.48,0,0,1,101,99a.5.5,0,0,1,0,.43c-.05.14-5.3,14.11-1.83,18.9a.52.52,0,0,1,0,.55A.5.5,0,0,1,98.77,119.11ZM79.07,86.88c-1.7,4-6.79,16.91-4.23,21,4.16,6.68,19,9.43,23,10.06-2.39-5.16,1.1-15.7,2-18.32-1.47-.23-5.52-.88-11.07-2.07C83,96.33,80.07,89.73,79.07,86.88Z" fill="#231f20"></path><path d="M77.48,107.55a.49.49,0,0,1-.49-.45c-.52-4.79,2.52-13.08,2.65-13.43a.5.5,0,0,1,.64-.29.5.5,0,0,1,.3.64c0,.08-3.09,8.42-2.6,13a.5.5,0,0,1-.44.55Z" fill="#d1d3d4"></path><path d="M77,111s-.36-4.58,1.79-7.62l-4.29-4.61S71.22,106.92,77,111Z" fill="#fff"></path><path d="M77,111.54a.52.52,0,0,1-.29-.09c-6-4.3-2.71-12.74-2.68-12.82a.52.52,0,0,1,.37-.31.51.51,0,0,1,.46.15l4.29,4.61a.5.5,0,0,1,.05.63c-2,2.85-1.7,7.25-1.7,7.29a.48.48,0,0,1-.25.47A.45.45,0,0,1,77,111.54Zm-2.3-11.77c-.56,1.92-1.61,7,1.78,10.19a13.13,13.13,0,0,1,1.67-6.49Z" fill="#231f20"></path><path d="M82,111.54h0a.5.5,0,0,1-.49-.52c0-.35.31-8.63,2.32-13.59a.49.49,0,0,1,.65-.27.5.5,0,0,1,.28.65c-1.94,4.79-2.25,13.16-2.25,13.25A.5.5,0,0,1,82,111.54Z" fill="#d1d3d4"></path><path d="M87.19,113.08a.51.51,0,0,1-.5-.49c-.11-5.53,2.25-12.48,2.35-12.77a.5.5,0,0,1,.95.33c0,.06-2.41,7.07-2.3,12.42a.5.5,0,0,1-.49.51Z" fill="#d1d3d4"></path><path d="M92.38,114.36a.49.49,0,0,1-.5-.49,52.31,52.31,0,0,1,.79-9.34.51.51,0,0,1,.59-.39.49.49,0,0,1,.39.59,51.11,51.11,0,0,0-.77,9.13.5.5,0,0,1-.5.5Z" fill="#d1d3d4"></path></g></svg>